<?xml version="1.0" encoding="utf-8"?>
<!-- Generator: Adobe Illustrator 23.1.0, SVG Export Plug-In . SVG Version: 6.00 Build 0)  -->
<svg version="1.1" id="Слой_1" xmlns="http://www.w3.org/2000/svg" xmlns:xlink="http://www.w3.org/1999/xlink" x="0px" y="0px"
	 viewBox="0 0 26 39" style="enable-background:new 0 0 26 39;" xml:space="preserve">
<style type="text/css">
	.st0{fill:#F7F7F7;}
</style>
<path class="st0" d="M26,3.2c0,0.3-0.2,0.7-0.4,0.9L8,19.5l17.5,15.4c0.3,0.2,0.4,0.6,0.4,0.9s-0.2,0.7-0.4,0.9l-2.2,2
	c-0.3,0.2-0.7,0.4-1,0.4s-0.8-0.2-1-0.4L0.5,20.4C0.2,20.2,0,19.8,0,19.5c0-0.3,0.2-0.7,0.4-0.9L21.3,0.4c0.3-0.2,0.7-0.4,1-0.4
	s0.8,0.2,1,0.4l2.2,2C25.8,2.6,26,2.9,26,3.2L26,3.2z"/>
</svg>
