<?xml version="1.0" encoding="utf-8"?>
<!-- Generator: Adobe Illustrator 23.1.0, SVG Export Plug-In . SVG Version: 6.00 Build 0)  -->
<svg version="1.1" id="Слой_1" xmlns="http://www.w3.org/2000/svg" xmlns:xlink="http://www.w3.org/1999/xlink" x="0px" y="0px"
	 viewBox="0 0 30 39" style="enable-background:new 0 0 30 39;" xml:space="preserve">
<style type="text/css">
	.st0{fill:#F7F7F7;}
</style>
<path class="st0" d="M29.7,19.5c0,0.3-0.2,0.7-0.5,0.9L5.9,38.6C5.6,38.8,5.2,39,4.8,39c-0.4,0-0.8-0.2-1.1-0.4l-2.5-2
	c-0.3-0.2-0.5-0.5-0.5-0.9c0-0.3,0.2-0.7,0.5-0.9l19.6-15.4L1.1,4.1C0.8,3.9,0.6,3.6,0.6,3.3s0.2-0.7,0.5-0.9l2.5-2
	C3.9,0.2,4.4,0,4.8,0c0.4,0,0.8,0.2,1.1,0.4l23.2,18.2C29.5,18.8,29.7,19.2,29.7,19.5L29.7,19.5z"/>
</svg>
