<?xml version="1.0" encoding="utf-8"?>
<!-- Generator: Adobe Illustrator 25.2.1, SVG Export Plug-In . SVG Version: 6.00 Build 0)  -->
<svg version="1.1" id="Слой_1" xmlns="http://www.w3.org/2000/svg" xmlns:xlink="http://www.w3.org/1999/xlink" x="0px" y="0px"
	 viewBox="0 0 76 53" style="enable-background:new 0 0 76 53;" xml:space="preserve">
<style type="text/css">
	.st0{clip-path:url(#SVGID_2_);fill:#F58021;}
	.st1{clip-path:url(#SVGID_4_);fill:#FFFFFF;}
</style>
<g>
	<g>
		<defs>
			<rect id="SVGID_1_" x="0.8" y="0.3" width="74.4" height="52.5"/>
		</defs>
		<clipPath id="SVGID_2_">
			<use xlink:href="#SVGID_1_"  style="overflow:visible;"/>
		</clipPath>
		<path class="st0" d="M74.4,11.6c0,0-0.7-5.1-3-7.4c-2.8-3-6-3-7.4-3.2C53.6,0.3,38,0.3,38,0.3l0,0c0,0-15.6,0-26,0.8
			c-1.4,0.2-4.6,0.2-7.4,3.2c-2.2,2.3-3,7.4-3,7.4s-0.7,6-0.7,12.1v5.7c0,6,0.7,12.1,0.7,12.1s0.7,5.1,3,7.4c2.8,3,6.5,2.9,8.2,3.2
			c5.9,0.6,25.3,0.8,25.3,0.8s15.6,0,26-0.8c1.4-0.2,4.6-0.2,7.4-3.2c2.2-2.3,3-7.4,3-7.4s0.7-6,0.7-12.1v-5.7
			C75.2,17.6,74.4,11.6,74.4,11.6z"/>
	</g>
</g>
<g>
	<defs>
		<rect id="SVGID_3_" x="0.8" y="0.3" width="74.4" height="52.5"/>
	</defs>
	<clipPath id="SVGID_4_">
		<use xlink:href="#SVGID_3_"  style="overflow:visible;"/>
	</clipPath>
	<path class="st1" d="M30.3,15.3v21l20.1-10.5L30.3,15.3z"/>
</g>
</svg>
